<svg id="Layer_1" data-name="Layer 1" xmlns="http://www.w3.org/2000/svg" viewBox="0 0 135.08362 64"><title>binoculars</title><path d="M102.13495,23.45709a14.96111,14.96111,0,0,0-2.71149,1.57227,15.15639,15.15639,0,0,0-1.37671,1.12311c-.12524.116-.23328.24329-.3537.36255q-.18448.18274-.36127.3703a15.11335,15.11335,0,0,0-.10071,20.60547,2.56384,2.56384,0,1,0,3.76324-3.483A9.97888,9.97888,0,0,1,115.6319,30.44116a2.56019,2.56019,0,0,0,3.75323-3.483A15.10206,15.10206,0,0,0,102.13495,23.45709Z"/><path d="M108.31061,10.449a26.6767,26.6767,0,0,0-18.41077,7.35352l-10.5943-4.89624c.033-.359.05518-.72119.05518-1.08862a11.81891,11.81891,0,0,0-23.63782,0c0,.36719.02216.72913.05511,1.08789L45.18488,17.80157a26.76645,26.76645,0,1,0,8.33423,20.579,49.1095,49.1095,0,0,1,28.04791.001A26.77091,26.77091,0,1,0,108.31061,10.449Zm-47.33191.0528a6.57333,6.57333,0,1,1-.13141,1.31586A6.70357,6.70357,0,0,1,60.9787,10.50177ZM48.18219,40.45239a21.71621,21.71621,0,0,1-13.172,16.79089l-.00238.00092A21.65707,21.65707,0,1,1,40.0686,20.16626,20.81367,20.81367,0,0,1,45.5575,26.515a21.46236,21.46236,0,0,1,2.73792,8.36572,21.54688,21.54688,0,0,1-.11322,5.57166ZM83.77722,26.515a26.54176,26.54176,0,0,0-1.93292,6.65332,53.26221,53.26221,0,0,0-28.60272-.00122,26.662,26.662,0,0,0-4.57294-11.3288l8.70642-4.025a11.78736,11.78736,0,0,0,20.33264.00043l8.7088,4.02576A26.76107,26.76107,0,0,0,83.77722,26.515Zm24.53339,32.3606a21.519,21.519,0,0,1-8.23334-1.63141l-.00385-.00153a21.627,21.627,0,0,1-13.2829-22.36029,21.4632,21.4632,0,0,1,2.738-8.36737,22.02853,22.02853,0,0,1,5.48749-6.348,21.64022,21.64022,0,1,1,13.29456,38.70862Z"/><path d="M37.76617,26.87854c-.11945-.127-.24841-.24127-.37146-.36353a15.25824,15.25824,0,0,0-1.72113-1.49139A15.03124,15.03124,0,0,0,27.346,22.134a14.74449,14.74449,0,0,0-10.83929,4.01843,15.1149,15.1149,0,0,0-.80823,21.33832,2.562,2.562,0,0,0,3.75824-3.483A9.977,9.977,0,1,1,34.08929,30.44116a2.562,2.562,0,1,0,3.75824-3.483C37.82153,26.93011,37.79236,26.90631,37.76617,26.87854Z"/></svg>