<svg id="Layer_1" data-name="Layer 1" xmlns="http://www.w3.org/2000/svg" viewBox="0 0 48.99566 64"><title>caliper</title><path d="M48.99566,62.68417,30.4089,20.43575a11.05067,11.05067,0,1,0-11.78322-.08843L9.928,40.11737a25.94912,25.94912,0,0,1-6.21049-5.54159L1.17531,36.63257a29.22762,29.22762,0,0,0,7.41833,6.51769L0,62.68417,2.99256,64l8.489-19.29577a28.911,28.911,0,0,0,25.77654-.58206L46.00309,64ZM16.80723,11.06323A7.792,7.792,0,1,1,29.08089,17.417l-.18045-.4102-2.99256,1.31583.16887.38385a7.41544,7.41544,0,0,1-3.14088-.03852l.1519-.34533-2.99256-1.31583-.12655.28764A7.76481,7.76481,0,0,1,16.80723,11.06323Zm7.03269,33.11942a25.83976,25.83976,0,0,1-11.04267-2.469l8.8196-20.04731a10.91265,10.91265,0,0,0,2.98159.4601,10.92432,10.92432,0,0,0,2.80473-.405L35.94171,41.1302A25.84107,25.84107,0,0,1,23.83991,44.18264Z"/></svg>