<svg id="Layer_1" data-name="Layer 1" xmlns="http://www.w3.org/2000/svg" viewBox="0 0 93.21804 64"><title>cloud-down</title><path d="M93.03229,29.69051a19.88357,19.88357,0,0,0-26.0258-16.1117,21.89915,21.89915,0,0,0-42.11827,7.03352,17.06407,17.06407,0,0,0-7.791-2.47963A15.605,15.605,0,0,0,2.34368,26.22553a17.15169,17.15169,0,0,0,.59476,18.25993c3.1528,4.65745,7.49808,7.49512,12.0209,7.78806l9.69513-.00888-.003-3.03-9.59453.01184c-3.48273-.22784-6.9847-2.5832-9.60932-6.45948a14.14432,14.14432,0,0,1-.47492-15.05534,12.68638,12.68638,0,0,1,11.92917-6.57488,13.92708,13.92708,0,0,1,8.53521,3.63068l2.85838,2.59208-.33141-3.84373c-.04586-.53854-.08285-1.083-.08285-1.63336A18.86768,18.86768,0,0,1,64.67481,16.0111l.51634,1.56826,1.51944-.648A16.85763,16.85763,0,0,1,90.03188,30.09293a16.88259,16.88259,0,0,1-14.755,19.09732l-5.41347.00592.003,3.03,5.5703-.01479A19.89132,19.89132,0,0,0,93.03229,29.69051Z"/><polygon points="48.689 58.2 48.689 34.83 45.659 34.83 45.659 58.201 35.132 47.675 32.99 49.818 47.174 64 61.356 49.818 59.214 47.675 48.689 58.2"/></svg>