<svg id="Layer_1" data-name="Layer 1" xmlns="http://www.w3.org/2000/svg" viewBox="0 0 68.90949 64"><title>cone</title><path d="M68.90949,7.68921C68.90949.21719,37.98247,0,34.45555,0S0,.21719,0,7.68921a2.80268,2.80268,0,0,0,.59241,1.604l-.1791.11407L35.21086,64,68.514,9.38135l-.1789-.1092A2.79306,2.79306,0,0,0,68.90949,7.68921ZM34.45555,3.31945c19.1825,0,29.48123,2.78782,31.0275,4.36975C63.93679,9.27113,53.638,12.059,34.45555,12.059c-19.18412,0-29.48285-2.78782-31.02912-4.36975C4.9727,6.10728,15.27144,3.31945,34.45555,3.31945Zm.69371,54.4047L6.30786,12.4824c9.233,2.7708,25.63339,2.896,28.1477,2.896,2.5295,0,19.10976-.12723,28.30978-2.94666Z"/></svg>