<svg id="Layer_1" data-name="Layer 1" xmlns="http://www.w3.org/2000/svg" viewBox="0 0 65.62062 64"><title>github</title><path d="M32.80824,0a32.81336,32.81336,0,0,0-10.369,63.94365c1.6407.301,2.2394-.71188,2.2394-1.58147,0-.77891-.02824-2.84224-.04431-5.58026C15.50779,58.76467,13.582,52.38368,13.582,52.38368,12.09,48.59334,9.939,47.58417,9.939,47.58417c-2.97883-2.03578.22543-1.99446.22543-1.99446,3.29265.23209,5.02563,3.38126,5.02563,3.38126,2.92672,5.01392,7.67917,3.56606,9.54874,2.72631A7.00819,7.00819,0,0,1,26.82188,47.311c-7.2857-.828-14.94512-3.643-14.94512-16.216a12.68325,12.68325,0,0,1,3.37713-8.80427,11.802,11.802,0,0,1,.32162-8.68306s2.75478-.88222,9.02258,3.36358a31.09754,31.09754,0,0,1,16.42811,0c6.2639-4.2458,9.01386-3.36358,9.01386-3.36358a11.78418,11.78418,0,0,1,.32644,8.68306A12.66127,12.66127,0,0,1,53.739,31.095c0,12.60448-7.67113,15.37808-14.98048,16.19028,1.17813,1.01307,2.22747,3.01556,2.22747,6.07612,0,4.38629-.0404,7.925-.0404,9.00077,0,.8774.59113,1.898,2.25616,1.57757A32.81505,32.81505,0,0,0,32.80824,0Z" fill-rule="evenodd"/></svg>