<svg id="Layer_1" data-name="Layer 1" xmlns="http://www.w3.org/2000/svg" viewBox="0 0 315.75966 64"><title>gitter-logo</title><path d="M25.31353,9.98491h5.413a17.302,17.302,0,0,1,.19976,1.839q.01526,24.72772-.00585,49.45545a15.56807,15.56807,0,0,1-.31884,2.19162H25.51026a13.5371,13.5371,0,0,1-.34815-2.14043q-.0295-24.81962-.01035-49.6393C25.15194,11.21341,25.23976,10.73563,25.31353,9.98491Z"/><path d="M17.89677,63.50571h-4.585a2.86558,2.86558,0,0,1-.68352-2.44361q-.01229-7.54047-.0055-15.081-.00013-16.73626.00692-33.47251c.00066-.77594.09193-1.55181.14724-2.42518a15.18525,15.18525,0,0,1,5.15161-.08261,18.65529,18.65529,0,0,1,.19509,1.87428q.01492,24.73656-.00109,49.47312C18.122,62.0004,17.98958,62.65252,17.89677,63.50571Z"/><path d="M.12422,0H5.26c.494,1.56779.504,37.71836.00988,39.40369-1.561.44961-3.19592.14232-5.0431.19787-.08089-.85339-.21432-1.6116-.21535-2.37Q-.00925,21.97516.00252,6.71873c0-1.593-.00883-3.18617.00649-4.77906C.01474,1.34414.07777.74916.12422,0Z"/><path d="M43.7722,39.09293c-1.95015.86092-3.72077.5082-5.43417.37212-.51416-1.671-.53676-27.67023-.08075-29.26051a10.1014,10.1014,0,0,1,5.372-.016,89.70755,89.70755,0,0,1,.16732,9.59035c.04993,3.18643.01522,6.37428.00938,9.56149C43.8,32.57294,43.784,35.80552,43.7722,39.09293Z"/><path d="M276.34568,62.555c-.001-17.3561-.00092-34.48456-.00038-51.729a13.31711,13.31711,0,0,1,1.87715-.2999c7.47954.01923,14.96448-.09762,22.43643.15848a15.76228,15.76228,0,0,1,11.16367,4.87427,13.82869,13.82869,0,0,1,3.51589,7.9164,25.45178,25.45178,0,0,1,.07726,5.32141c-.45351,6.84805-4.50625,11.22542-10.62464,12.96768-.62568.17817-1.2368.40729-2.0709.68467a10.72751,10.72751,0,0,0,.809,1.956c3.78814,5.49074,7.61272,10.95631,11.41872,16.43475.30357.437.54364.91807.81177,1.37614-1.263.7304-3.35518.86345-6.63685.43169-.46229-.60466-1.08386-1.34583-1.62749-2.14031-3.70039-5.40771-7.4207-10.80252-11.04415-16.26153a3.16266,3.16266,0,0,0-2.9206-1.51059c-3.06407.01345-6.12818.05922-9.19169.12136a16.83123,16.83123,0,0,0-1.89561.261c-.05619.85871-.14183,1.57375-.14353,2.289-.01211,5.0278-.00254,10.05564-.01255,15.08344-.0013.65718-.07454,1.3142-.12209,2.09695A14.54049,14.54049,0,0,1,276.34568,62.555Zm5.957-25.34165a16.1973,16.1973,0,0,0,1.92963.27191c4.6607.01437,9.32451.09868,13.98061-.05a15.77993,15.77993,0,0,0,4.99543-1.092c3.3287-1.2658,5.08261-3.92587,5.68177-7.35041.67794-3.87485.14847-7.49036-2.82915-10.34923-2.24522-2.15566-5.13535-2.84587-8.12189-2.92-4.47407-.11111-8.953-.03764-13.42972-.018a21.97938,21.97938,0,0,0-2.21021.25085C282.29139,23.06254,282.2853,30.018,282.3027,37.21336Z"/><path d="M264.95565,62.5596c-2.22523.42729-35.23274.35791-36.89869-.06783-.058-.68779-.17769-1.45237-.17866-2.2171q-.01836-14.80885-.00725-29.61773,0-8.73815-.002-17.4763c-.00009-.721,0-1.44191,0-2.32921a15.32186,15.32186,0,0,1,2.12576-.32384q16.55645-.02874,33.113-.01086c.53685.00031,1.07366.083,1.63877.12966.61813,1.59549.25563,3.09441.264,4.8036-.88968.08885-1.64935.22929-2.40928.23073-8.64614.01647-17.29233.00611-25.93847.02171-.82632.00149-1.6524.12962-2.365.18943-.60767,1.74238-.63729,14.79237-.12364,16.49405.72685.74839,1.68207.5993,2.58761.60026,7.05184.0075,14.10368-.00163,21.1555.01126.77512.00141,1.55.10934,2.34651.16949a8.85464,8.85464,0,0,1,.14073,4.80478c-.83091.07636-1.59771.20636-2.36484.20806-7.05179.01565-14.10368.00211-21.15547.01821-.83524.00191-1.67019.13059-2.6769.21488a15.57358,15.57358,0,0,0-.36318,2.26247q-.045,6.89824.00184,13.79685a26.56142,26.56142,0,0,0,.36617,2.9943c.96559.07311,1.73979.18161,2.5141.18272q12.87728.01846,25.75455.013c.72048.00066,1.44091.07059,2.25279.11311A11.089,11.089,0,0,1,264.95565,62.5596Z"/><path d="M97.38872,12.92354a6.89988,6.89988,0,0,1-.97624,4.58425A6.00417,6.00417,0,0,1,94.964,17.291a34.36388,34.36388,0,0,0-14.38831-2.37133A17.08757,17.08757,0,0,0,70.1873,18.50772a14.90827,14.90827,0,0,0-4.79467,6.79144,35.76954,35.76954,0,0,0-.83386,20.79251,16.30091,16.30091,0,0,0,4.81978,8.29089,13.858,13.858,0,0,0,6.12792,3.19414,27.94385,27.94385,0,0,0,16.959-.99391,5.07693,5.07693,0,0,0,.70041-.468,18.30526,18.30526,0,0,0,.2775-2.29883c.03036-4.35246.00685-8.70527.021-13.0579.00255-.78224.09382-1.56419.13841-2.25727a6.13467,6.13467,0,0,1,5.51949.05037c.35312,1.3777.48027,17.72267.15489,20.76725-1.21334,1.51121-3.12038,1.78609-4.81054,2.39616A38.26284,38.26284,0,0,1,76.9213,63.73574a21.44424,21.44424,0,0,1-12.34016-5.20712,19.90227,19.90227,0,0,1-5.31972-7.82932C57.27685,45.30544,56.90719,39.725,57.125,34.05584A35.04128,35.04128,0,0,1,59.5656,22.0621a18.92311,18.92311,0,0,1,11.92477-11.209,33.97812,33.97812,0,0,1,13.6299-1.23589,40.25061,40.25061,0,0,1,9.84521,2.16093A21.93282,21.93282,0,0,1,97.38872,12.92354Z"/><path d="M169.68748,10.83972a8.78541,8.78541,0,0,1,.10434,4.57025,20.51388,20.51388,0,0,1-2.31037.27057c-4.22968.02617-8.45964.00087-12.68934.02326-.766.00406-1.53129.14782-2.47053.24505-.06483,1.02458-.16305,1.85879-.16362,2.69306q-.01449,20.78127-.01231,41.56256c-.00039.77694-.074,1.55383-.12014,2.46186a16.38952,16.38952,0,0,1-5.68792-.08739c-.05287-.87543-.14-1.64985-.14046-2.42433q-.01226-20.87323-.01113-41.74646c-.0004-.7779-.07737-1.55577-.12779-2.50437-.84916-.07886-1.55585-.19836-2.263-.20135-4.29106-.01817-8.58228.00346-12.87324-.0236a16.76129,16.76129,0,0,1-2.16071-.295c-.18851-1.69977-.49609-3.18454.21836-4.57072C130.70959,10.39861,167.86632,10.4051,169.68748,10.83972Z"/><path d="M217.12486,10.81392V15.4534c-.83109.08765-1.54022.22375-2.25.22726-4.29018.02121-8.58052.00277-12.8707.02239-.71228.00325-1.424.12826-2.28706.21159-.05462.92377-.1399,1.69823-.14032,2.47274q-.01156,20.86908-.00977,41.73816c-.00036.77833-.07227,1.55665-.1167,2.45172a14.68031,14.68031,0,0,1-5.68141.02886c-.05709-.87754-.15054-1.64907-.15106-2.42067q-.01381-20.86909-.01224-41.73817c-.00038-.78132-.067-1.56259-.111-2.52433-.83609-.08535-1.53894-.21594-2.24235-.21928-4.29018-.02039-8.58049-.00756-12.87076-.01751-.65934-.00153-1.31855-.0635-2.07409-.10247a11.86392,11.86392,0,0,1-.17626-4.7723,12.0364,12.0364,0,0,1,1.82028-.28916q18.66263-.02254,37.32527.0027A12.46449,12.46449,0,0,1,217.12486,10.81392Z"/><path d="M117.75066,62.65708a18.57845,18.57845,0,0,1-5.61285-.02157,18.04055,18.04055,0,0,1-.19508-1.85143q-.01469-24.09866-.00124-48.19733c.00025-.5368.086-1.07356.14109-1.71856a12.51705,12.51705,0,0,1,5.59989-.14647,18.39984,18.39984,0,0,1,.19986,1.88209q.01457,24.09866.00145,48.19734C117.88355,61.341,117.80846,61.88084,117.75066,62.65708Z"/></svg>