<svg id="Layer_1" data-name="Layer 1" xmlns="http://www.w3.org/2000/svg" viewBox="0 0 82.02923 64"><title>hand</title><path d="M81.81953,21.83518a1.43858,1.43858,0,0,0-1.96667-.47144l-7.93641,4.86785.0795.88151c.56768,6.23476-2.30561,13.45425-6.26265,15.76125L34.6418,60.62179a3.82976,3.82976,0,0,1-3.8622-6.61449l10.0872-5.88571a1.42769,1.42769,0,0,0-1.43943-2.466L29.34295,51.53885l-.00575.00418L18.83592,57.6704a3.84341,3.84341,0,0,1-2.904.39612,3.82925,3.82925,0,0,1-.95544-7.01027L34.155,39.86437a1.42769,1.42769,0,1,0-1.43943-2.466L8.612,51.46353A3.82976,3.82976,0,0,1,4.754,44.8466L30.2677,29.96129a1.42769,1.42769,0,0,0-1.43943-2.466l-16.5786,9.67155a3.84428,3.84428,0,0,1-2.904.39612,3.82925,3.82925,0,0,1-.95544-7.01027L32.21763,16.6521c2.69057,2.66128,11.62706,10.21273,23.14253,6.54719a1.42877,1.42877,0,1,0-.86757-2.72265C42.73582,24.237,33.63754,14.01593,33.54827,13.91272l-.7783-.88988-.82346.48051L20.01034,16.1165a3.82955,3.82955,0,0,1-1.63889-7.48171L43.22958,3.19228c2.71289-.5914,9.77755-1.2079,16.67484,5.9028l.80619.82851L69.071,4.66519a1.42719,1.42719,0,1,0-1.52033-2.41579L61.12766,6.28874C55.76326,1.22,48.92595-.97259,42.61866.40268L17.76053,5.84519a6.6862,6.6862,0,0,0,1.43107,13.21713,6.5965,6.5965,0,0,0,1.42828-.15622l3.30707-.7239L6.95082,28.08668A6.66872,6.66872,0,0,0,7.53,39.92121L3.31458,42.38059a6.68513,6.68513,0,0,0,6.73689,11.54895l.20382-.11891A6.672,6.672,0,0,0,20.27535,60.1364l5.78755-3.377a6.6766,6.6766,0,0,0,10.00717,6.33675l31.0915-17.74744c4.70327-2.74218,8.06613-10.49169,7.74114-17.5968l6.44537-3.95007A1.433,1.433,0,0,0,81.81953,21.83518Z"/></svg>