<?xml version="1.0" encoding="utf-8"?>
<!-- Generator: Adobe Illustrator 21.1.0, SVG Export Plug-In . SVG Version: 6.00 Build 0)  -->
<svg version="1.1" id="Layer_1" xmlns="http://www.w3.org/2000/svg" xmlns:xlink="http://www.w3.org/1999/xlink" x="0px" y="0px"
	 viewBox="0 0 68 64" style="enable-background:new 0 0 68 64;" xml:space="preserve">
<title>human-reading</title>
<path d="M34.2,35.3c9.7,0,17.7-7.9,17.7-17.7S43.9,0,34.2,0S16.5,7.9,16.5,17.7l0,0C16.5,27.4,24.4,35.3,34.2,35.3z M34.2,1.8
	C42.9,1.8,50,8.9,50,17.7c0,8.7-7.1,15.8-15.8,15.8s-15.8-7.1-15.8-15.8c0,0,0,0,0,0C18.4,8.9,25.4,1.9,34.2,1.8z"/>
<path d="M47,40.3H21c-11.6,0-20.9,9.4-21,21V64h1.8v-2.7c0-10.6,8.6-19.1,19.1-19.1H47c10.6,0,19.1,8.6,19.1,19.1V64H68v-2.7
	C68,49.7,58.6,40.4,47,40.3z"/>
<polygon points="40.9,17.7 39.1,17.7 39.1,25 34.1,25 34.1,26.8 40.9,26.8 "/>
</svg>
