<svg id="Layer_1" data-name="Layer 1" xmlns="http://www.w3.org/2000/svg" viewBox="0 0 49.09912 64"><title>manifold-doc</title><polygon points="37.019 28.562 34.407 27.553 38.732 26.185 38.732 24.727 32.332 26.752 29.719 25.743 38.732 22.892 38.732 21.434 27.645 24.942 16.371 20.588 16.4 29.957 26.859 26.648 26.859 28.484 16.4 31.793 16.4 33.25 26.859 29.941 26.859 31.777 16.4 35.086 16.4 36.543 26.859 33.234 26.859 35.07 16.4 38.379 16.4 39.836 26.859 36.527 26.859 38.363 16.4 41.672 16.4 43.13 27.544 39.603 38.735 43.925 38.732 28.02 37.019 28.562" fill="#52e3ac"/><path d="M48.21663,11.85291l-.00757-.01135L37.18416.81989c-.01971-.01971-.04608-.02649-.06689-.04443A2.97071,2.97071,0,0,0,35.12562,0H6.55818V57.44073h42.541V13.97351A2.98547,2.98547,0,0,0,48.21663,11.85291ZM38.12025,4.92963l6.05,6.04816h-6.05Zm8.734,50.26624H8.80305V2.24487H35.12562a.746.746,0,0,1,.52673.21765l.00586.00586a.74847.74847,0,0,1,.21716.52734V13.22266H46.10231a.7522.7522,0,0,1,.752.75085Z" transform="translate(-0.00001)" fill="#52e3ac"/><polygon points="2.245 7.681 0 7.681 0 64 41.42 64 41.42 61.755 2.245 61.755 2.245 7.681" fill="#52e3ac"/></svg>