<?xml version="1.0" encoding="utf-8"?>
<!-- Generator: Adobe Illustrator 21.1.0, SVG Export Plug-In . SVG Version: 6.00 Build 0)  -->
<svg version="1.1" id="Layer_1" xmlns="http://www.w3.org/2000/svg" xmlns:xlink="http://www.w3.org/1999/xlink" x="0px" y="0px"
	 viewBox="0 0 64 43.69171" enable-background="new 0 0 64 43.69171" xml:space="preserve">
<path d="M0,39.33003h23.79852v2.80902H0V39.33003z M63.15643,9.40181L38.91211,40.64674l-10.52557,3.04492l0.47595-10.93707
	l0.89398-1.1521H0v-2.80908h31.9361l5.99396-7.72479H0V18.2596h40.10962l5.99506-7.7262H0V7.72438h48.2843l4.82111-6.21332
	c0.65558-0.83258,1.58826-1.35651,2.63342-1.48132c1.05066-0.12891,2.07385,0.16461,2.8996,0.8147l3.85687,3.03259
	c0.82849,0.6488,1.35242,1.58148,1.47583,2.62524C64.09735,7.5461,63.80658,8.57613,63.15643,9.40181z M61.18408,6.83559
	c-0.03564-0.29761-0.18652-0.56372-0.42249-0.75024l-3.85962-3.034c-0.23596-0.18378-0.51849-0.26746-0.83118-0.23315
	c-0.29626,0.03564-0.56512,0.18652-0.75165,0.42242L31.63031,33.76961l-0.26746,6.13647l5.8924-1.70624L60.94543,7.67226
	C61.1347,7.42812,61.21973,7.1346,61.18408,6.83559z"/>
</svg>
