<?xml version="1.0" encoding="utf-8"?>
<!-- Generator: Adobe Illustrator 21.1.0, SVG Export Plug-In . SVG Version: 6.00 Build 0)  -->
<svg version="1.1" id="Layer_1" xmlns="http://www.w3.org/2000/svg" xmlns:xlink="http://www.w3.org/1999/xlink" x="0px" y="0px"
	 viewBox="0 0 195 195" style="enable-background:new 0 0 195 195;" xml:space="preserve">
<style type="text/css">
	.st0{fill:#2D333A;}
</style>
<g id="Layer_1_1_">
</g>
<g id="Layer_3">
</g>
<g id="Layer_4">
</g>
<g id="Layer_2">
	<g>
		
			<rect x="83.8" y="84.4" transform="matrix(0.9482 -0.3176 0.3176 0.9482 -25.9659 36.0219)" class="st0" width="27.4" height="26.5"/>
		<g>
			
				<rect x="83.8" y="84.4" transform="matrix(0.9482 -0.3176 0.3176 0.9482 -25.9659 36.0219)" class="st0" width="27.4" height="26.5"/>
			<path class="st0" d="M186.8,70.7c-20.1-67-49.1-82.6-116.1-62.5S-11.9,57.3,8.2,124.3s49.1,82.6,116.1,62.5
				S206.9,137.7,186.8,70.7z M153,114.2l-12.6,4.2l4.4,13.1c1.7,5.3-1.1,11.1-6.4,12.8c-1.1,0.3-2.3,0.6-3.4,0.5
				c-4.1-0.2-8-2.8-9.4-6.9l-4.4-13.1l-26,8.7l4.4,13.1c1.7,5.3-1.1,11.1-6.4,12.8c-1.1,0.3-2.3,0.6-3.4,0.5c-4.1-0.2-8-2.8-9.4-6.9
				L76,139.9l-12.6,4.2c-1.1,0.3-2.3,0.6-3.4,0.5c-4.1-0.2-8-2.8-9.4-6.9c-1.7-5.3,1.1-11.1,6.4-12.8l12.6-4.2l-8.4-25.1l-12.6,4.2
				c-1.1,0.3-2.3,0.6-3.4,0.5c-4.1-0.2-8-2.8-9.4-6.9c-1.7-5.3,1.1-11.1,6.4-12.8l12.6-4.2l-4.4-13.1c-1.7-5.3,1.1-11.1,6.4-12.8
				s11.1,1.1,12.8,6.4L74,70.1l26-8.7l-4.4-13.1c-1.7-5.3,1.1-11.1,6.4-12.8c5.3-1.7,11.1,1.1,12.8,6.4l4.4,13.1l12.6-4.2
				c5.3-1.7,11.1,1.1,12.8,6.4c1.7,5.3-1.1,11.1-6.4,12.8l-12.6,4.2l8.4,25.1l12.6-4.2c5.3-1.7,11.1,1.1,12.8,6.4
				C161.1,106.7,158.3,112.5,153,114.2z"/>
		</g>
	</g>
</g>
</svg>
