<svg id="Layer_1" data-name="Layer 1" xmlns="http://www.w3.org/2000/svg" viewBox="0 0 109.49719 64"><title>iteration</title><polygon points="76.427 43.783 83.653 51.011 20.971 51.011 20.971 54.386 83.653 54.386 76.427 61.614 78.813 64 90.113 52.699 78.813 41.397 76.427 43.783"/><path d="M15.909,0,0,15.91058,15.909,31.81952,31.81954,15.91058ZM4.77236,15.91058,15.909,4.77234,27.0472,15.91058,15.909,27.04718Z" transform="translate(-0.00002)"/><path d="M48.0317,28.1134a10.12308,10.12308,0,0,0,14.31873,0l5.04425-5.04431a10.121,10.121,0,0,0,0-14.317L62.35042,3.70776a10.36519,10.36519,0,0,0-14.31873,0l-5.0426,5.04431a10.121,10.121,0,0,0,0,14.317ZM45.37526,11.13824,50.41793,6.094a6.9106,6.9106,0,0,1,9.54633,0l5.04425,5.04425a6.74724,6.74724,0,0,1,0,9.54468l-5.04425,5.04431a6.91072,6.91072,0,0,1-9.54633,0l-5.04266-5.04431a6.74739,6.74739,0,0,1,0-9.54468Z" transform="translate(-0.00002)"/><path d="M94.47323.88654a15.024,15.024,0,1,0,15.024,15.024A15.04,15.04,0,0,0,94.47323.88654Zm0,26.67316a11.64911,11.64911,0,1,1,11.64911-11.64911A11.66164,11.66164,0,0,1,94.47323,27.55969Z" transform="translate(-0.00002)"/></svg>