<svg id="Layer_1" data-name="Layer 1" xmlns="http://www.w3.org/2000/svg" viewBox="0 0 63.99928 64"><title>venn-diagram</title><path d="M63.99928,23.00834a23.01052,23.01052,0,0,0-45.56691-4.5385A23.00746,23.00746,0,1,0,45.53392,45.54665,22.96849,22.96849,0,0,0,63.99928,23.00834ZM37.18634,55.19763A20.07007,20.07007,0,1,1,18.05647,21.58143c-.02886.47468-.06955.94721-.06955,1.42691a22.98544,22.98544,0,0,0,23.00547,22.994c.477,0,.95294-.03872,1.42924-.06812A19.9159,19.9159,0,0,1,37.18634,55.19763Zm5.77109-12.2282a20.23073,20.23073,0,0,1-5.97168-.31048l5.66012-5.66084A20.22874,20.22874,0,0,1,42.95743,42.96944ZM33.7736,41.7182a19.884,19.884,0,0,1-3.26916-1.62212l9.57892-9.57784a19.89335,19.89335,0,0,1,1.6214,3.26755Zm-5.68683-3.35753c-.43865-.3691-.87192-.74805-1.28457-1.16071-.4114-.41158-.7934-.844-1.16411-1.28368L35.90177,25.65367c.43847.3691.87192.74805,1.28457,1.16071.413.413.79251.84682,1.162,1.28583Zm-4.18464-4.86152a19.79418,19.79418,0,0,1-1.62535-3.2679l7.93708-7.93565a19.89712,19.89712,0,0,1,3.27023,1.62266Zm-2.57435-6.47163a20.25726,20.25726,0,0,1-.40387-4.01918c0-.66.03316-1.31487.09572-1.96343.65663-.06435,1.31577-.09877,1.97508-.09877a20.21745,20.21745,0,0,1,4.00681.40853ZM45.92148,42.43363a22.90564,22.90564,0,0,0-24.36641-24.356,20.0771,20.0771,0,1,1,24.36641,24.356Z"/></svg>
