<svg id="Layer_1" data-name="Layer 1" xmlns="http://www.w3.org/2000/svg" viewBox="0 0 79.88437 64"><title>watering-can</title><path d="M16.73607,38.91559A16.75592,16.75592,0,0,0,0,55.65166V64H3.22714V55.65166A13.52457,13.52457,0,0,1,16.73607,42.14273Z"/><path d="M7.22168,56.01251V64h3.22714V56.01251a6.29994,6.29994,0,0,1,6.292-6.29356V46.49181A9.53028,9.53028,0,0,0,7.22168,56.01251Z"/><path d="M79.88437,35.22833l-7.9999-7.9999L65.83968,9.7878a15.45407,15.45407,0,0,0-25.305-5.25671l-.52315.52315a15.42371,15.42371,0,0,0-.78985,20.88739l-5.3225,5.32211L41.551,38.91559H23.31642v3.22714H44.77817L58.87328,56.23784ZM42.29321,7.33592l.52315-.52315a12.22941,12.22941,0,0,1,19.9963,4.09538l3.84366,11.09212L54.91026,10.25422,41.50317,23.66033A12.20263,12.20263,0,0,1,42.29321,7.33592ZM54.91026,14.8176,75.321,35.22833,58.87328,51.67446,38.46255,31.26373Z"/></svg>