<svg id="Layer_1" data-name="Layer 1" xmlns="http://www.w3.org/2000/svg" viewBox="0 0 64.00547 64.00004"><title>wrench</title><path d="M60.7441,13.477,59.47683,11.1924,42.223,28.44618l-6.66534-6.66534L52.81143,4.527l-2.2865-1.26923A26.17544,26.17544,0,0,0,13.43844,35.66542L0,49.10384l2.78461,2.78461L18.11923,36.55391l-.55774-1.23846a22.2353,22.2353,0,0,1,28.65-29.76154l-16.223,16.22693L42.223,34.0154,58.448,17.78853A22.2358,22.2358,0,0,1,28.68838,46.44234L27.448,45.88466,12.11538,61.21535,14.9,64,28.33651,50.56538A26.17608,26.17608,0,0,0,60.7441,13.477Z" transform="translate(-0.00002 0.00002)"/></svg>